<mxfile host="Electron" modified="2024-03-16T21:45:16.290Z" agent="Mozilla/5.0 (Windows NT 10.0; Win64; x64) AppleWebKit/537.36 (KHTML, like Gecko) draw.io/24.0.4 Chrome/120.0.6099.109 Electron/28.1.0 Safari/537.36" etag="_YkXZtmAw8sTHkdfw_it" version="24.0.4" type="device">
  <diagram id="XFHpeiSi0u0Yl8Dt0QiH" name="å›³">
    <mxGraphModel dx="1372" dy="884" grid="1" gridSize="10" guides="1" tooltips="1" connect="1" arrows="1" fold="1" page="1" pageScale="1" pageWidth="827" pageHeight="1169" math="0" shadow="0">
      <root>
        <mxCell id="0" />
        <mxCell id="1" parent="0" />
        <mxCell id="UpeX0ytgud8sJiyW5_rK-2" value="" style="endArrow=none;html=1;rounded=0;strokeWidth=3;" edge="1" parent="1" target="2w-JCmEwAeJiXaYkBGyj-30">
          <mxGeometry width="50" height="50" relative="1" as="geometry">
            <mxPoint x="120" y="490" as="sourcePoint" />
            <mxPoint x="80" y="280" as="targetPoint" />
          </mxGeometry>
        </mxCell>
        <mxCell id="2w-JCmEwAeJiXaYkBGyj-84" value="" style="endArrow=none;html=1;rounded=0;strokeWidth=3;" parent="1" source="2w-JCmEwAeJiXaYkBGyj-86" target="2w-JCmEwAeJiXaYkBGyj-74" edge="1">
          <mxGeometry width="50" height="50" relative="1" as="geometry">
            <mxPoint x="120" y="940" as="sourcePoint" />
            <mxPoint x="119.5" y="920" as="targetPoint" />
          </mxGeometry>
        </mxCell>
        <mxCell id="2w-JCmEwAeJiXaYkBGyj-80" value="" style="endArrow=none;html=1;rounded=0;strokeWidth=3;" parent="1" source="2w-JCmEwAeJiXaYkBGyj-82" target="2w-JCmEwAeJiXaYkBGyj-81" edge="1">
          <mxGeometry width="50" height="50" relative="1" as="geometry">
            <mxPoint x="199.5" y="720" as="sourcePoint" />
            <mxPoint x="199.5" y="600" as="targetPoint" />
          </mxGeometry>
        </mxCell>
        <mxCell id="2w-JCmEwAeJiXaYkBGyj-79" value="" style="endArrow=none;html=1;rounded=0;strokeWidth=3;exitX=0.5;exitY=0;exitDx=0;exitDy=0;" parent="1" source="2w-JCmEwAeJiXaYkBGyj-88" target="2w-JCmEwAeJiXaYkBGyj-58" edge="1">
          <mxGeometry width="50" height="50" relative="1" as="geometry">
            <mxPoint x="130" y="650" as="sourcePoint" />
            <mxPoint x="130" y="510" as="targetPoint" />
          </mxGeometry>
        </mxCell>
        <mxCell id="2w-JCmEwAeJiXaYkBGyj-77" value="" style="endArrow=classic;html=1;rounded=0;strokeWidth=3;sourcePerimeterSpacing=0;" parent="1" source="2w-JCmEwAeJiXaYkBGyj-70" target="2w-JCmEwAeJiXaYkBGyj-74" edge="1">
          <mxGeometry width="50" height="50" relative="1" as="geometry">
            <mxPoint x="440" y="621" as="sourcePoint" />
            <mxPoint x="140" y="659" as="targetPoint" />
          </mxGeometry>
        </mxCell>
        <mxCell id="2w-JCmEwAeJiXaYkBGyj-62" value="" style="endArrow=none;html=1;rounded=0;strokeWidth=3;" parent="1" target="2w-JCmEwAeJiXaYkBGyj-27" edge="1">
          <mxGeometry width="50" height="50" relative="1" as="geometry">
            <mxPoint x="280" y="730" as="sourcePoint" />
            <mxPoint x="279.5" y="380" as="targetPoint" />
          </mxGeometry>
        </mxCell>
        <mxCell id="2w-JCmEwAeJiXaYkBGyj-49" value="" style="endArrow=none;html=1;rounded=0;strokeWidth=3;" parent="1" source="2w-JCmEwAeJiXaYkBGyj-48" target="2w-JCmEwAeJiXaYkBGyj-44" edge="1">
          <mxGeometry width="50" height="50" relative="1" as="geometry">
            <mxPoint x="199.5" y="440" as="sourcePoint" />
            <mxPoint x="199.5" y="320" as="targetPoint" />
          </mxGeometry>
        </mxCell>
        <mxCell id="2w-JCmEwAeJiXaYkBGyj-7" value="" style="endArrow=classic;html=1;rounded=0;strokeWidth=3;sourcePerimeterSpacing=0;" parent="1" target="2w-JCmEwAeJiXaYkBGyj-6" edge="1">
          <mxGeometry width="50" height="50" relative="1" as="geometry">
            <mxPoint x="40" y="50" as="sourcePoint" />
            <mxPoint x="200" y="70" as="targetPoint" />
          </mxGeometry>
        </mxCell>
        <mxCell id="APvLBfwxOTxtCqtlH9bZ-1" value="" style="endArrow=none;html=1;rounded=0;strokeWidth=3;" parent="1" source="2w-JCmEwAeJiXaYkBGyj-2" edge="1">
          <mxGeometry width="50" height="50" relative="1" as="geometry">
            <mxPoint x="40" y="330" as="sourcePoint" />
            <mxPoint x="40" y="50" as="targetPoint" />
          </mxGeometry>
        </mxCell>
        <mxCell id="2w-JCmEwAeJiXaYkBGyj-1" value="main" style="text;html=1;align=center;verticalAlign=middle;whiteSpace=wrap;rounded=0;fontSize=16;fontStyle=1" parent="1" vertex="1">
          <mxGeometry width="80" height="30" as="geometry" />
        </mxCell>
        <mxCell id="2w-JCmEwAeJiXaYkBGyj-3" value="" style="endArrow=none;html=1;rounded=0;strokeWidth=3;" parent="1" source="2w-JCmEwAeJiXaYkBGyj-46" target="2w-JCmEwAeJiXaYkBGyj-2" edge="1">
          <mxGeometry width="50" height="50" relative="1" as="geometry">
            <mxPoint x="40" y="330" as="sourcePoint" />
            <mxPoint x="40" y="50" as="targetPoint" />
          </mxGeometry>
        </mxCell>
        <mxCell id="2w-JCmEwAeJiXaYkBGyj-2" value="" style="ellipse;whiteSpace=wrap;html=1;aspect=fixed;fillColor=#cce5ff;strokeColor=#36393d;strokeWidth=3;" parent="1" vertex="1">
          <mxGeometry x="30" y="40" width="20" height="20" as="geometry" />
        </mxCell>
        <mxCell id="2w-JCmEwAeJiXaYkBGyj-4" value="develop" style="text;html=1;align=center;verticalAlign=middle;whiteSpace=wrap;rounded=0;fontSize=16;fontStyle=1" parent="1" vertex="1">
          <mxGeometry x="80" y="40" width="80" height="30" as="geometry" />
        </mxCell>
        <mxCell id="2w-JCmEwAeJiXaYkBGyj-5" value="" style="endArrow=none;html=1;rounded=0;strokeWidth=3;" parent="1" source="2w-JCmEwAeJiXaYkBGyj-17" target="2w-JCmEwAeJiXaYkBGyj-6" edge="1">
          <mxGeometry width="50" height="50" relative="1" as="geometry">
            <mxPoint x="120" y="120" as="sourcePoint" />
            <mxPoint x="120" y="90" as="targetPoint" />
          </mxGeometry>
        </mxCell>
        <mxCell id="2w-JCmEwAeJiXaYkBGyj-6" value="" style="ellipse;whiteSpace=wrap;html=1;aspect=fixed;fillColor=#ffff88;strokeColor=#36393d;strokeWidth=3;" parent="1" vertex="1">
          <mxGeometry x="110" y="80" width="20" height="20" as="geometry" />
        </mxCell>
        <mxCell id="2w-JCmEwAeJiXaYkBGyj-11" value="" style="endArrow=none;html=1;rounded=0;strokeWidth=3;exitX=0.5;exitY=0;exitDx=0;exitDy=0;" parent="1" source="2w-JCmEwAeJiXaYkBGyj-16" target="2w-JCmEwAeJiXaYkBGyj-12" edge="1">
          <mxGeometry width="50" height="50" relative="1" as="geometry">
            <mxPoint x="199.5" y="390" as="sourcePoint" />
            <mxPoint x="199.5" y="160" as="targetPoint" />
          </mxGeometry>
        </mxCell>
        <mxCell id="2w-JCmEwAeJiXaYkBGyj-12" value="" style="ellipse;whiteSpace=wrap;html=1;aspect=fixed;fillColor=#ffcccc;strokeColor=#36393d;strokeWidth=3;" parent="1" vertex="1">
          <mxGeometry x="190" y="120" width="20" height="20" as="geometry" />
        </mxCell>
        <mxCell id="2w-JCmEwAeJiXaYkBGyj-13" value="" style="endArrow=classic;html=1;rounded=0;strokeWidth=3;sourcePerimeterSpacing=0;" parent="1" source="2w-JCmEwAeJiXaYkBGyj-6" target="2w-JCmEwAeJiXaYkBGyj-12" edge="1">
          <mxGeometry width="50" height="50" relative="1" as="geometry">
            <mxPoint x="50" y="60" as="sourcePoint" />
            <mxPoint x="121" y="96" as="targetPoint" />
          </mxGeometry>
        </mxCell>
        <mxCell id="2w-JCmEwAeJiXaYkBGyj-14" value="feature" style="text;html=1;align=center;verticalAlign=middle;whiteSpace=wrap;rounded=0;fontSize=16;fontStyle=1" parent="1" vertex="1">
          <mxGeometry x="160" y="75" width="80" height="30" as="geometry" />
        </mxCell>
        <mxCell id="2w-JCmEwAeJiXaYkBGyj-16" value="" style="ellipse;whiteSpace=wrap;html=1;aspect=fixed;fillColor=#ffcccc;strokeColor=#36393d;strokeWidth=3;" parent="1" vertex="1">
          <mxGeometry x="190" y="160" width="20" height="20" as="geometry" />
        </mxCell>
        <mxCell id="2w-JCmEwAeJiXaYkBGyj-18" value="" style="endArrow=none;html=1;rounded=0;strokeWidth=3;exitX=0.5;exitY=0.5;exitDx=0;exitDy=0;exitPerimeter=0;" parent="1" source="UpeX0ytgud8sJiyW5_rK-1" target="2w-JCmEwAeJiXaYkBGyj-17" edge="1">
          <mxGeometry width="50" height="50" relative="1" as="geometry">
            <mxPoint x="120" y="370" as="sourcePoint" />
            <mxPoint x="120" y="140" as="targetPoint" />
          </mxGeometry>
        </mxCell>
        <mxCell id="2w-JCmEwAeJiXaYkBGyj-17" value="" style="ellipse;whiteSpace=wrap;html=1;aspect=fixed;fillColor=#ffff88;strokeColor=#36393d;strokeWidth=3;" parent="1" vertex="1">
          <mxGeometry x="110" y="200" width="20" height="20" as="geometry" />
        </mxCell>
        <mxCell id="2w-JCmEwAeJiXaYkBGyj-19" value="" style="endArrow=classic;html=1;rounded=0;strokeWidth=3;sourcePerimeterSpacing=0;" parent="1" source="2w-JCmEwAeJiXaYkBGyj-16" target="2w-JCmEwAeJiXaYkBGyj-17" edge="1">
          <mxGeometry width="50" height="50" relative="1" as="geometry">
            <mxPoint x="139" y="144" as="sourcePoint" />
            <mxPoint x="201" y="176" as="targetPoint" />
          </mxGeometry>
        </mxCell>
        <mxCell id="2w-JCmEwAeJiXaYkBGyj-20" value="release/1.x" style="text;html=1;align=center;verticalAlign=middle;whiteSpace=wrap;rounded=0;fontSize=16;fontStyle=1" parent="1" vertex="1">
          <mxGeometry x="230" y="195" width="100" height="30" as="geometry" />
        </mxCell>
        <mxCell id="2w-JCmEwAeJiXaYkBGyj-21" value="" style="ellipse;whiteSpace=wrap;html=1;aspect=fixed;fillColor=#cdeb8b;strokeColor=#36393d;strokeWidth=3;" parent="1" vertex="1">
          <mxGeometry x="270" y="240" width="20" height="20" as="geometry" />
        </mxCell>
        <mxCell id="2w-JCmEwAeJiXaYkBGyj-22" value="" style="endArrow=classic;html=1;rounded=0;strokeWidth=3;sourcePerimeterSpacing=0;" parent="1" source="2w-JCmEwAeJiXaYkBGyj-17" target="2w-JCmEwAeJiXaYkBGyj-21" edge="1">
          <mxGeometry width="50" height="50" relative="1" as="geometry">
            <mxPoint x="169" y="310" as="sourcePoint" />
            <mxPoint x="231" y="342" as="targetPoint" />
          </mxGeometry>
        </mxCell>
        <mxCell id="2w-JCmEwAeJiXaYkBGyj-23" value="" style="ellipse;whiteSpace=wrap;html=1;aspect=fixed;fillColor=#d80073;strokeColor=#36393D;strokeWidth=3;fontColor=#ffffff;" parent="1" vertex="1">
          <mxGeometry x="350" y="280" width="20" height="20" as="geometry" />
        </mxCell>
        <mxCell id="2w-JCmEwAeJiXaYkBGyj-24" value="bugfix" style="text;html=1;align=center;verticalAlign=middle;whiteSpace=wrap;rounded=0;fontSize=16;fontStyle=1" parent="1" vertex="1">
          <mxGeometry x="320" y="240" width="80" height="30" as="geometry" />
        </mxCell>
        <mxCell id="2w-JCmEwAeJiXaYkBGyj-25" value="" style="endArrow=classic;html=1;rounded=0;strokeWidth=3;sourcePerimeterSpacing=0;" parent="1" source="2w-JCmEwAeJiXaYkBGyj-21" target="2w-JCmEwAeJiXaYkBGyj-23" edge="1">
          <mxGeometry width="50" height="50" relative="1" as="geometry">
            <mxPoint x="268" y="340" as="sourcePoint" />
            <mxPoint x="330" y="372" as="targetPoint" />
          </mxGeometry>
        </mxCell>
        <mxCell id="2w-JCmEwAeJiXaYkBGyj-26" value="" style="endArrow=none;html=1;rounded=0;strokeWidth=3;" parent="1" source="2w-JCmEwAeJiXaYkBGyj-27" target="2w-JCmEwAeJiXaYkBGyj-21" edge="1">
          <mxGeometry width="50" height="50" relative="1" as="geometry">
            <mxPoint x="279.5" y="520" as="sourcePoint" />
            <mxPoint x="279.5" y="380" as="targetPoint" />
          </mxGeometry>
        </mxCell>
        <mxCell id="2w-JCmEwAeJiXaYkBGyj-27" value="" style="ellipse;whiteSpace=wrap;html=1;aspect=fixed;fillColor=#cdeb8b;strokeColor=#36393d;strokeWidth=3;" parent="1" vertex="1">
          <mxGeometry x="270" y="320" width="20" height="20" as="geometry" />
        </mxCell>
        <mxCell id="2w-JCmEwAeJiXaYkBGyj-28" value="" style="endArrow=classic;html=1;rounded=0;strokeWidth=3;sourcePerimeterSpacing=0;" parent="1" source="2w-JCmEwAeJiXaYkBGyj-23" target="2w-JCmEwAeJiXaYkBGyj-27" edge="1">
          <mxGeometry width="50" height="50" relative="1" as="geometry">
            <mxPoint x="299" y="344" as="sourcePoint" />
            <mxPoint x="361" y="376" as="targetPoint" />
          </mxGeometry>
        </mxCell>
        <mxCell id="2w-JCmEwAeJiXaYkBGyj-29" value="" style="endArrow=classic;html=1;rounded=0;strokeWidth=3;sourcePerimeterSpacing=0;" parent="1" source="2w-JCmEwAeJiXaYkBGyj-27" target="2w-JCmEwAeJiXaYkBGyj-30" edge="1">
          <mxGeometry width="50" height="50" relative="1" as="geometry">
            <mxPoint x="140" y="302" as="sourcePoint" />
            <mxPoint x="170" y="440" as="targetPoint" />
          </mxGeometry>
        </mxCell>
        <mxCell id="2w-JCmEwAeJiXaYkBGyj-30" value="" style="ellipse;whiteSpace=wrap;html=1;aspect=fixed;fillColor=#ffff88;strokeColor=#36393d;strokeWidth=3;" parent="1" vertex="1">
          <mxGeometry x="110" y="360" width="20" height="20" as="geometry" />
        </mxCell>
        <mxCell id="2w-JCmEwAeJiXaYkBGyj-31" value="" style="ellipse;whiteSpace=wrap;html=1;aspect=fixed;fillColor=#cdeb8b;strokeColor=#36393d;strokeWidth=3;" parent="1" vertex="1">
          <mxGeometry x="430" y="520" width="20" height="20" as="geometry" />
        </mxCell>
        <mxCell id="2w-JCmEwAeJiXaYkBGyj-32" value="" style="ellipse;whiteSpace=wrap;html=1;aspect=fixed;fillColor=#d80073;strokeColor=#36393D;strokeWidth=3;fontColor=#ffffff;" parent="1" vertex="1">
          <mxGeometry x="510" y="560" width="20" height="20" as="geometry" />
        </mxCell>
        <mxCell id="2w-JCmEwAeJiXaYkBGyj-33" value="bugfix" style="text;html=1;align=center;verticalAlign=middle;whiteSpace=wrap;rounded=0;fontSize=16;fontStyle=1" parent="1" vertex="1">
          <mxGeometry x="480" y="520" width="80" height="30" as="geometry" />
        </mxCell>
        <mxCell id="2w-JCmEwAeJiXaYkBGyj-34" value="" style="endArrow=classic;html=1;rounded=0;strokeWidth=3;sourcePerimeterSpacing=0;" parent="1" source="2w-JCmEwAeJiXaYkBGyj-31" target="2w-JCmEwAeJiXaYkBGyj-32" edge="1">
          <mxGeometry width="50" height="50" relative="1" as="geometry">
            <mxPoint x="428" y="540" as="sourcePoint" />
            <mxPoint x="490" y="572" as="targetPoint" />
          </mxGeometry>
        </mxCell>
        <mxCell id="2w-JCmEwAeJiXaYkBGyj-35" value="" style="endArrow=none;html=1;rounded=0;strokeWidth=3;" parent="1" source="2w-JCmEwAeJiXaYkBGyj-36" target="2w-JCmEwAeJiXaYkBGyj-31" edge="1">
          <mxGeometry width="50" height="50" relative="1" as="geometry">
            <mxPoint x="439.5" y="720" as="sourcePoint" />
            <mxPoint x="439.5" y="580" as="targetPoint" />
          </mxGeometry>
        </mxCell>
        <mxCell id="2w-JCmEwAeJiXaYkBGyj-36" value="" style="ellipse;whiteSpace=wrap;html=1;aspect=fixed;fillColor=#cdeb8b;strokeColor=#36393d;strokeWidth=3;" parent="1" vertex="1">
          <mxGeometry x="430" y="600" width="20" height="20" as="geometry" />
        </mxCell>
        <mxCell id="2w-JCmEwAeJiXaYkBGyj-37" value="" style="endArrow=classic;html=1;rounded=0;strokeWidth=3;sourcePerimeterSpacing=0;" parent="1" source="2w-JCmEwAeJiXaYkBGyj-32" target="2w-JCmEwAeJiXaYkBGyj-36" edge="1">
          <mxGeometry width="50" height="50" relative="1" as="geometry">
            <mxPoint x="459" y="544" as="sourcePoint" />
            <mxPoint x="521" y="576" as="targetPoint" />
          </mxGeometry>
        </mxCell>
        <mxCell id="2w-JCmEwAeJiXaYkBGyj-38" value="release/2.&lt;span style=&quot;background-color: initial;&quot;&gt;x&lt;/span&gt;" style="text;html=1;align=center;verticalAlign=middle;whiteSpace=wrap;rounded=0;fontSize=16;fontStyle=1" parent="1" vertex="1">
          <mxGeometry x="390" y="480" width="100" height="30" as="geometry" />
        </mxCell>
        <mxCell id="2w-JCmEwAeJiXaYkBGyj-42" value="" style="ellipse;whiteSpace=wrap;html=1;aspect=fixed;fillColor=#ffff88;strokeColor=#36393d;strokeWidth=3;" parent="1" vertex="1">
          <mxGeometry x="110" y="480" width="20" height="20" as="geometry" />
        </mxCell>
        <mxCell id="2w-JCmEwAeJiXaYkBGyj-44" value="" style="ellipse;whiteSpace=wrap;html=1;aspect=fixed;fillColor=#ffcccc;strokeColor=#36393d;strokeWidth=3;" parent="1" vertex="1">
          <mxGeometry x="190" y="280" width="20" height="20" as="geometry" />
        </mxCell>
        <mxCell id="2w-JCmEwAeJiXaYkBGyj-45" value="" style="endArrow=classic;html=1;rounded=0;strokeWidth=3;sourcePerimeterSpacing=0;" parent="1" source="UpeX0ytgud8sJiyW5_rK-1" target="2w-JCmEwAeJiXaYkBGyj-44" edge="1">
          <mxGeometry width="50" height="50" relative="1" as="geometry">
            <mxPoint x="160" y="260" as="sourcePoint" />
            <mxPoint x="192" y="272" as="targetPoint" />
          </mxGeometry>
        </mxCell>
        <mxCell id="2w-JCmEwAeJiXaYkBGyj-46" value="" style="ellipse;whiteSpace=wrap;html=1;aspect=fixed;fillColor=#cce5ff;strokeColor=#36393d;strokeWidth=3;" parent="1" vertex="1">
          <mxGeometry x="30" y="400" width="20" height="20" as="geometry" />
        </mxCell>
        <mxCell id="2w-JCmEwAeJiXaYkBGyj-47" value="" style="endArrow=classic;html=1;rounded=1;strokeWidth=3;sourcePerimeterSpacing=0;jumpStyle=arc;jumpSize=16;curved=0;" parent="1" source="2w-JCmEwAeJiXaYkBGyj-27" target="2w-JCmEwAeJiXaYkBGyj-46" edge="1">
          <mxGeometry width="50" height="50" relative="1" as="geometry">
            <mxPoint x="360" y="410" as="sourcePoint" />
            <mxPoint x="299" y="336" as="targetPoint" />
            <Array as="points">
              <mxPoint x="240" y="410" />
            </Array>
          </mxGeometry>
        </mxCell>
        <mxCell id="2w-JCmEwAeJiXaYkBGyj-48" value="" style="ellipse;whiteSpace=wrap;html=1;aspect=fixed;fillColor=#ffcccc;strokeColor=#36393d;strokeWidth=3;" parent="1" vertex="1">
          <mxGeometry x="190" y="440" width="20" height="20" as="geometry" />
        </mxCell>
        <mxCell id="2w-JCmEwAeJiXaYkBGyj-50" value="" style="endArrow=classic;html=1;rounded=0;strokeWidth=3;sourcePerimeterSpacing=0;" parent="1" source="2w-JCmEwAeJiXaYkBGyj-48" target="2w-JCmEwAeJiXaYkBGyj-42" edge="1">
          <mxGeometry width="50" height="50" relative="1" as="geometry">
            <mxPoint x="137" y="227" as="sourcePoint" />
            <mxPoint x="203" y="293" as="targetPoint" />
          </mxGeometry>
        </mxCell>
        <mxCell id="2w-JCmEwAeJiXaYkBGyj-51" value="" style="endArrow=classic;html=1;rounded=0;strokeWidth=3;sourcePerimeterSpacing=0;" parent="1" source="2w-JCmEwAeJiXaYkBGyj-42" target="2w-JCmEwAeJiXaYkBGyj-31" edge="1">
          <mxGeometry width="50" height="50" relative="1" as="geometry">
            <mxPoint x="201" y="464" as="sourcePoint" />
            <mxPoint x="139" y="496" as="targetPoint" />
          </mxGeometry>
        </mxCell>
        <mxCell id="2w-JCmEwAeJiXaYkBGyj-53" value="&lt;font style=&quot;font-size: 12px;&quot;&gt;tag&lt;/font&gt;&lt;div&gt;&lt;b&gt;1.0&lt;/b&gt;&lt;/div&gt;" style="shape=callout;whiteSpace=wrap;html=1;perimeter=calloutPerimeter;size=20;position=0.08;position2=0;direction=east;flipV=1;base=20;fillColor=#f5f5f5;fontColor=#333333;strokeColor=#666666;fontSize=16;" parent="1" vertex="1">
          <mxGeometry x="290" y="340" width="90" height="60" as="geometry" />
        </mxCell>
        <mxCell id="2w-JCmEwAeJiXaYkBGyj-55" value="&lt;font style=&quot;font-size: 12px;&quot;&gt;tag&lt;/font&gt;&lt;div&gt;&lt;b&gt;2.0&lt;/b&gt;&lt;/div&gt;" style="shape=callout;whiteSpace=wrap;html=1;perimeter=calloutPerimeter;size=20;position=0.08;position2=0;direction=east;flipV=1;base=20;fillColor=#f5f5f5;fontColor=#333333;strokeColor=#666666;fontSize=16;" parent="1" vertex="1">
          <mxGeometry x="450" y="620" width="90" height="60" as="geometry" />
        </mxCell>
        <mxCell id="2w-JCmEwAeJiXaYkBGyj-56" value="" style="ellipse;whiteSpace=wrap;html=1;aspect=fixed;fillColor=#cce5ff;strokeColor=#36393d;strokeWidth=3;" parent="1" vertex="1">
          <mxGeometry x="30" y="680" width="20" height="20" as="geometry" />
        </mxCell>
        <mxCell id="2w-JCmEwAeJiXaYkBGyj-57" value="" style="endArrow=none;html=1;rounded=0;strokeWidth=3;" parent="1" source="2w-JCmEwAeJiXaYkBGyj-56" target="2w-JCmEwAeJiXaYkBGyj-46" edge="1">
          <mxGeometry width="50" height="50" relative="1" as="geometry">
            <mxPoint x="50" y="410" as="sourcePoint" />
            <mxPoint x="30" y="460" as="targetPoint" />
          </mxGeometry>
        </mxCell>
        <mxCell id="2w-JCmEwAeJiXaYkBGyj-58" value="" style="ellipse;whiteSpace=wrap;html=1;aspect=fixed;fillColor=#ffff88;strokeColor=#36393d;strokeWidth=3;" parent="1" vertex="1">
          <mxGeometry x="110" y="640" width="20" height="20" as="geometry" />
        </mxCell>
        <mxCell id="2w-JCmEwAeJiXaYkBGyj-59" value="" style="endArrow=none;html=1;rounded=0;strokeWidth=3;" parent="1" source="2w-JCmEwAeJiXaYkBGyj-58" target="2w-JCmEwAeJiXaYkBGyj-42" edge="1">
          <mxGeometry width="50" height="50" relative="1" as="geometry">
            <mxPoint x="130" y="500" as="sourcePoint" />
            <mxPoint x="130" y="520" as="targetPoint" />
          </mxGeometry>
        </mxCell>
        <mxCell id="2w-JCmEwAeJiXaYkBGyj-60" value="" style="endArrow=classic;html=1;rounded=0;strokeWidth=3;sourcePerimeterSpacing=0;" parent="1" source="2w-JCmEwAeJiXaYkBGyj-36" target="2w-JCmEwAeJiXaYkBGyj-58" edge="1">
          <mxGeometry width="50" height="50" relative="1" as="geometry">
            <mxPoint x="201" y="464" as="sourcePoint" />
            <mxPoint x="139" y="496" as="targetPoint" />
          </mxGeometry>
        </mxCell>
        <mxCell id="2w-JCmEwAeJiXaYkBGyj-61" value="" style="endArrow=classic;html=1;rounded=1;strokeWidth=3;sourcePerimeterSpacing=0;jumpStyle=arc;jumpSize=16;curved=0;" parent="1" source="2w-JCmEwAeJiXaYkBGyj-36" target="2w-JCmEwAeJiXaYkBGyj-56" edge="1">
          <mxGeometry width="50" height="50" relative="1" as="geometry">
            <mxPoint x="286" y="349" as="sourcePoint" />
            <mxPoint x="60" y="420" as="targetPoint" />
            <Array as="points">
              <mxPoint x="400" y="690" />
            </Array>
          </mxGeometry>
        </mxCell>
        <mxCell id="2w-JCmEwAeJiXaYkBGyj-63" value="" style="ellipse;whiteSpace=wrap;html=1;aspect=fixed;fillColor=#cdeb8b;strokeColor=#36393d;strokeWidth=3;" parent="1" vertex="1">
          <mxGeometry x="270" y="720" width="20" height="20" as="geometry" />
        </mxCell>
        <mxCell id="2w-JCmEwAeJiXaYkBGyj-64" value="" style="ellipse;whiteSpace=wrap;html=1;aspect=fixed;fillColor=#d80073;strokeColor=#36393D;strokeWidth=3;fontColor=#ffffff;" parent="1" vertex="1">
          <mxGeometry x="350" y="760" width="20" height="20" as="geometry" />
        </mxCell>
        <mxCell id="2w-JCmEwAeJiXaYkBGyj-65" value="" style="ellipse;whiteSpace=wrap;html=1;aspect=fixed;fillColor=#cdeb8b;strokeColor=#36393d;strokeWidth=3;" parent="1" vertex="1">
          <mxGeometry x="270" y="800" width="20" height="20" as="geometry" />
        </mxCell>
        <mxCell id="2w-JCmEwAeJiXaYkBGyj-66" value="" style="endArrow=classic;html=1;rounded=0;strokeWidth=3;sourcePerimeterSpacing=0;" parent="1" source="2w-JCmEwAeJiXaYkBGyj-63" target="2w-JCmEwAeJiXaYkBGyj-64" edge="1">
          <mxGeometry width="50" height="50" relative="1" as="geometry">
            <mxPoint x="299" y="734" as="sourcePoint" />
            <mxPoint x="430" y="730" as="targetPoint" />
          </mxGeometry>
        </mxCell>
        <mxCell id="2w-JCmEwAeJiXaYkBGyj-67" value="" style="endArrow=classic;html=1;rounded=0;strokeWidth=3;sourcePerimeterSpacing=0;" parent="1" source="2w-JCmEwAeJiXaYkBGyj-64" target="2w-JCmEwAeJiXaYkBGyj-65" edge="1">
          <mxGeometry width="50" height="50" relative="1" as="geometry">
            <mxPoint x="360" y="800" as="sourcePoint" />
            <mxPoint x="299" y="806" as="targetPoint" />
          </mxGeometry>
        </mxCell>
        <mxCell id="2w-JCmEwAeJiXaYkBGyj-68" value="" style="endArrow=none;html=1;rounded=0;strokeWidth=3;" parent="1" edge="1">
          <mxGeometry width="50" height="50" relative="1" as="geometry">
            <mxPoint x="279.5" y="800" as="sourcePoint" />
            <mxPoint x="279.5" y="740" as="targetPoint" />
          </mxGeometry>
        </mxCell>
        <mxCell id="2w-JCmEwAeJiXaYkBGyj-69" value="&lt;font style=&quot;font-size: 12px;&quot;&gt;tag&lt;/font&gt;&lt;div&gt;&lt;b&gt;1.1&lt;/b&gt;&lt;/div&gt;" style="shape=callout;whiteSpace=wrap;html=1;perimeter=calloutPerimeter;size=20;position=0.67;position2=1;direction=east;flipV=0;base=20;fillColor=#f5f5f5;fontColor=#333333;strokeColor=#666666;fontSize=16;" parent="1" vertex="1">
          <mxGeometry x="180" y="740" width="90" height="60" as="geometry" />
        </mxCell>
        <mxCell id="2w-JCmEwAeJiXaYkBGyj-70" value="" style="ellipse;whiteSpace=wrap;html=1;aspect=fixed;fillColor=#cdeb8b;strokeColor=#36393d;strokeWidth=3;" parent="1" vertex="1">
          <mxGeometry x="430" y="840" width="20" height="20" as="geometry" />
        </mxCell>
        <mxCell id="2w-JCmEwAeJiXaYkBGyj-71" value="" style="endArrow=none;html=1;rounded=0;strokeWidth=3;" parent="1" source="2w-JCmEwAeJiXaYkBGyj-70" target="2w-JCmEwAeJiXaYkBGyj-36" edge="1">
          <mxGeometry width="50" height="50" relative="1" as="geometry">
            <mxPoint x="450" y="610" as="sourcePoint" />
            <mxPoint x="450" y="550" as="targetPoint" />
          </mxGeometry>
        </mxCell>
        <mxCell id="2w-JCmEwAeJiXaYkBGyj-72" value="" style="endArrow=classic;html=1;rounded=0;strokeWidth=3;sourcePerimeterSpacing=0;" parent="1" source="2w-JCmEwAeJiXaYkBGyj-65" target="2w-JCmEwAeJiXaYkBGyj-70" edge="1">
          <mxGeometry width="50" height="50" relative="1" as="geometry">
            <mxPoint x="330" y="870" as="sourcePoint" />
            <mxPoint x="361" y="776" as="targetPoint" />
          </mxGeometry>
        </mxCell>
        <mxCell id="2w-JCmEwAeJiXaYkBGyj-73" value="&lt;font style=&quot;font-size: 12px;&quot;&gt;tag&lt;/font&gt;&lt;div&gt;&lt;b&gt;2.1&lt;/b&gt;&lt;/div&gt;" style="shape=callout;whiteSpace=wrap;html=1;perimeter=calloutPerimeter;size=20;position=0.08;position2=0;direction=east;flipV=1;base=20;fillColor=#f5f5f5;fontColor=#333333;strokeColor=#666666;fontSize=16;" parent="1" vertex="1">
          <mxGeometry x="450" y="860" width="90" height="60" as="geometry" />
        </mxCell>
        <mxCell id="2w-JCmEwAeJiXaYkBGyj-74" value="" style="ellipse;whiteSpace=wrap;html=1;aspect=fixed;fillColor=#ffff88;strokeColor=#36393d;strokeWidth=3;" parent="1" vertex="1">
          <mxGeometry x="110" y="880" width="20" height="20" as="geometry" />
        </mxCell>
        <mxCell id="2w-JCmEwAeJiXaYkBGyj-75" value="" style="ellipse;whiteSpace=wrap;html=1;aspect=fixed;fillColor=#cce5ff;strokeColor=#36393d;strokeWidth=3;" parent="1" vertex="1">
          <mxGeometry x="30" y="920" width="20" height="20" as="geometry" />
        </mxCell>
        <mxCell id="2w-JCmEwAeJiXaYkBGyj-76" value="" style="endArrow=none;html=1;rounded=0;strokeWidth=3;" parent="1" source="2w-JCmEwAeJiXaYkBGyj-75" target="2w-JCmEwAeJiXaYkBGyj-56" edge="1">
          <mxGeometry width="50" height="50" relative="1" as="geometry">
            <mxPoint x="50" y="690" as="sourcePoint" />
            <mxPoint x="80" y="730" as="targetPoint" />
          </mxGeometry>
        </mxCell>
        <mxCell id="2w-JCmEwAeJiXaYkBGyj-78" value="" style="endArrow=classic;html=1;rounded=1;strokeWidth=3;sourcePerimeterSpacing=0;jumpStyle=arc;jumpSize=16;curved=0;" parent="1" source="2w-JCmEwAeJiXaYkBGyj-70" target="2w-JCmEwAeJiXaYkBGyj-75" edge="1">
          <mxGeometry width="50" height="50" relative="1" as="geometry">
            <mxPoint x="450" y="854.5" as="sourcePoint" />
            <mxPoint x="64" y="925.5" as="targetPoint" />
            <Array as="points">
              <mxPoint x="400" y="930" />
            </Array>
          </mxGeometry>
        </mxCell>
        <mxCell id="2w-JCmEwAeJiXaYkBGyj-81" value="" style="ellipse;whiteSpace=wrap;html=1;aspect=fixed;fillColor=#ffcccc;strokeColor=#36393d;strokeWidth=3;" parent="1" vertex="1">
          <mxGeometry x="190" y="800" width="20" height="20" as="geometry" />
        </mxCell>
        <mxCell id="2w-JCmEwAeJiXaYkBGyj-82" value="" style="ellipse;whiteSpace=wrap;html=1;aspect=fixed;fillColor=#ffcccc;strokeColor=#36393d;strokeWidth=3;" parent="1" vertex="1">
          <mxGeometry x="190" y="960" width="20" height="20" as="geometry" />
        </mxCell>
        <mxCell id="2w-JCmEwAeJiXaYkBGyj-83" value="" style="endArrow=classic;html=1;rounded=0;strokeWidth=3;sourcePerimeterSpacing=0;" parent="1" source="2w-JCmEwAeJiXaYkBGyj-88" target="2w-JCmEwAeJiXaYkBGyj-81" edge="1">
          <mxGeometry width="50" height="50" relative="1" as="geometry">
            <mxPoint x="137" y="227" as="sourcePoint" />
            <mxPoint x="200" y="810" as="targetPoint" />
          </mxGeometry>
        </mxCell>
        <mxCell id="2w-JCmEwAeJiXaYkBGyj-86" value="" style="ellipse;whiteSpace=wrap;html=1;aspect=fixed;fillColor=#ffff88;strokeColor=#36393d;strokeWidth=3;" parent="1" vertex="1">
          <mxGeometry x="110" y="1000" width="20" height="20" as="geometry" />
        </mxCell>
        <mxCell id="2w-JCmEwAeJiXaYkBGyj-87" value="" style="endArrow=classic;html=1;rounded=0;strokeWidth=3;sourcePerimeterSpacing=0;" parent="1" source="2w-JCmEwAeJiXaYkBGyj-82" target="2w-JCmEwAeJiXaYkBGyj-86" edge="1">
          <mxGeometry width="50" height="50" relative="1" as="geometry">
            <mxPoint x="192" y="970" as="sourcePoint" />
            <mxPoint x="130" y="1002" as="targetPoint" />
          </mxGeometry>
        </mxCell>
        <mxCell id="2w-JCmEwAeJiXaYkBGyj-89" value="" style="endArrow=none;html=1;rounded=0;strokeWidth=3;exitX=0.5;exitY=0;exitDx=0;exitDy=0;" parent="1" source="2w-JCmEwAeJiXaYkBGyj-74" target="2w-JCmEwAeJiXaYkBGyj-88" edge="1">
          <mxGeometry width="50" height="50" relative="1" as="geometry">
            <mxPoint x="120" y="880" as="sourcePoint" />
            <mxPoint x="120" y="660" as="targetPoint" />
          </mxGeometry>
        </mxCell>
        <mxCell id="2w-JCmEwAeJiXaYkBGyj-88" value="" style="ellipse;whiteSpace=wrap;html=1;aspect=fixed;fillColor=#ffff88;strokeColor=#36393d;strokeWidth=3;" parent="1" vertex="1">
          <mxGeometry x="110" y="760" width="20" height="20" as="geometry" />
        </mxCell>
        <mxCell id="UpeX0ytgud8sJiyW5_rK-1" value="" style="ellipse;whiteSpace=wrap;html=1;aspect=fixed;fillColor=#ffff88;strokeColor=#36393d;strokeWidth=3;" vertex="1" parent="1">
          <mxGeometry x="110" y="240" width="20" height="20" as="geometry" />
        </mxCell>
        <mxCell id="UpeX0ytgud8sJiyW5_rK-3" value="" style="endArrow=none;html=1;rounded=0;strokeWidth=3;" edge="1" parent="1" source="2w-JCmEwAeJiXaYkBGyj-30" target="UpeX0ytgud8sJiyW5_rK-1">
          <mxGeometry width="50" height="50" relative="1" as="geometry">
            <mxPoint x="80" y="350" as="sourcePoint" />
            <mxPoint x="80" y="240" as="targetPoint" />
          </mxGeometry>
        </mxCell>
      </root>
    </mxGraphModel>
  </diagram>
</mxfile>
